#define eject_width 22
#define eject_height 22
static unsigned char eject_bits[] = {
   0x00, 0x00, 0x00, 0x00, 0x00, 0x00, 0x00, 0x02, 0x00, 0x00, 0x07, 0x00,
   0x80, 0x0f, 0x00, 0xc0, 0x1f, 0x00, 0xe0, 0x3f, 0x00, 0xf0, 0x7f, 0x00,
   0xf8, 0xff, 0x00, 0xfc, 0xff, 0x01, 0xfe, 0xff, 0x03, 0xff, 0xff, 0x07,
   0x00, 0x00, 0x00, 0x00, 0x00, 0x00, 0xff, 0xff, 0x07, 0xff, 0xff, 0x07,
   0xff, 0xff, 0x07, 0xff, 0xff, 0x07, 0xff, 0xff, 0x07, 0x00, 0x00, 0x00,
   0x00, 0x00, 0x00, 0x00, 0x00, 0x00 };
