#define lock_width 22
#define lock_height 22
static unsigned char lock_bits[] = {
   0x00, 0x00, 0x00, 0xe0, 0x1f, 0x00, 0xf8, 0x7f, 0x00, 0x3c, 0xf0, 0x00,
   0x0e, 0xc0, 0x01, 0x06, 0x80, 0x01, 0x06, 0x80, 0x01, 0x06, 0x80, 0x01,
   0x06, 0x80, 0x01, 0x06, 0x80, 0x01, 0xff, 0xff, 0x03, 0xff, 0xff, 0x03,
   0xff, 0xff, 0x03, 0xff, 0xff, 0x03, 0x03, 0x00, 0x03, 0xff, 0xff, 0x03,
   0x03, 0x00, 0x03, 0xff, 0xff, 0x03, 0xff, 0xff, 0x03, 0xff, 0xff, 0x03,
   0xff, 0xff, 0x03, 0x00, 0x00, 0x00 };
